<?xml version="1.0" encoding="utf-8"?>
<!-- Generator: Adobe Illustrator 25.1.0, SVG Export Plug-In . SVG Version: 6.00 Build 0)  -->
<svg version="1.1" xmlns="http://www.w3.org/2000/svg" xmlns:xlink="http://www.w3.org/1999/xlink" x="0px" y="0px"
	 viewBox="0 0 128 128" style="enable-background:new 0 0 128 128;" xml:space="preserve">
<style type="text/css">
	.st0{fill:#B3B3B3;}
	.st1{fill:#8C6239;}
	.st2{fill:#42210B;}
	.st3{fill:#C7B299;}
	.st4{fill:none;stroke:#42210B;stroke-width:4;stroke-linecap:round;stroke-miterlimit:10;}
	.st5{fill:#A67C52;}
	.st6{fill:#C69C6D;}
	.st7{fill:none;stroke:#000000;stroke-width:3;stroke-linecap:round;stroke-miterlimit:10;}
	.st8{fill:none;stroke:#000000;stroke-width:2;stroke-linecap:round;stroke-miterlimit:10;}
</style>
<g id="Layer_2">
	<rect x="0" class="st0" width="128" height="128"/>
</g>
<g id="Layer_1">
	<g>
		<g>
			<g>
				<path class="st1" d="M21.5,97V63h56.28c7.02,0,12.72,7.63,12.72,17s-5.71,17-12.72,17H21.5z"/>
				<path class="st2" d="M77.78,64.5C83.97,64.5,89,71.45,89,80s-5.03,15.5-11.22,15.5H23v-31H77.78 M77.78,61.5H20v37h57.78
					C85.63,98.5,92,90.22,92,80C92,69.78,85.63,61.5,77.78,61.5L77.78,61.5z"/>
			</g>
			<g>
				<ellipse class="st3" cx="20" cy="80" rx="14.5" ry="17"/>
				<path class="st2" d="M20,64.5c7.17,0,13,6.95,13,15.5s-5.83,15.5-13,15.5S7,88.55,7,80S12.83,64.5,20,64.5 M20,61.5
					c-8.84,0-16,8.28-16,18.5s7.16,18.5,16,18.5S36,90.22,36,80S28.84,61.5,20,61.5L20,61.5z"/>
			</g>
			<g>
				<line class="st4" x1="36.5" y1="69.5" x2="56.5" y2="69.5"/>
			</g>
			<line class="st4" x1="38.5" y1="90.5" x2="52.5" y2="90.5"/>
		</g>
		<g>
			<g>
				<path class="st5" d="M37.5,65V31h56.28c7.02,0,12.72,7.63,12.72,17s-5.71,17-12.72,17H37.5z"/>
				<path class="st2" d="M93.78,32.5C99.97,32.5,105,39.45,105,48s-5.03,15.5-11.22,15.5H39v-31H93.78 M93.78,29.5H36v37h57.78
					c7.85,0,14.22-8.28,14.22-18.5C108,37.78,101.63,29.5,93.78,29.5L93.78,29.5z"/>
			</g>
			<g>
				<ellipse class="st3" cx="36" cy="48" rx="14.5" ry="17"/>
				<path class="st2" d="M36,32.5c7.17,0,13,6.95,13,15.5s-5.83,15.5-13,15.5S23,56.55,23,48S28.83,32.5,36,32.5 M36,29.5
					c-8.84,0-16,8.28-16,18.5s7.16,18.5,16,18.5S52,58.22,52,48S44.84,29.5,36,29.5L36,29.5z"/>
			</g>
			<line class="st4" x1="76" y1="48" x2="97" y2="48"/>
			<line class="st4" x1="59" y1="39" x2="73" y2="39"/>
			<line class="st4" x1="51.96" y1="47.83" x2="63.96" y2="47.83"/>
			<line class="st4" x1="87.96" y1="56.83" x2="103.96" y2="56.83"/>
			<line class="st4" x1="84" y1="39" x2="98" y2="39"/>
			<line class="st4" x1="62.96" y1="56.83" x2="71.96" y2="56.83"/>
		</g>
		<g>
			<g>
				<path class="st6" d="M53.5,97V63h56.28c7.02,0,12.72,7.63,12.72,17s-5.71,17-12.72,17H53.5z"/>
				<path class="st2" d="M109.78,64.5c6.19,0,11.22,6.95,11.22,15.5s-5.03,15.5-11.22,15.5H55v-31H109.78 M109.78,61.5H52v37h57.78
					c7.85,0,14.22-8.28,14.22-18.5C124,69.78,117.63,61.5,109.78,61.5L109.78,61.5z"/>
			</g>
			<g>
				<ellipse class="st3" cx="52" cy="80" rx="14.5" ry="17"/>
				<path class="st2" d="M52,64.5c7.17,0,13,6.95,13,15.5s-5.83,15.5-13,15.5S39,88.55,39,80S44.83,64.5,52,64.5 M52,61.5
					c-8.84,0-16,8.28-16,18.5s7.16,18.5,16,18.5S68,90.22,68,80S60.84,61.5,52,61.5L52,61.5z"/>
			</g>
			<line class="st4" x1="70.5" y1="70.5" x2="91.5" y2="70.5"/>
			<line class="st4" x1="77.5" y1="80.5" x2="91.5" y2="80.5"/>
			<line class="st4" x1="105.5" y1="80.5" x2="117.5" y2="80.5"/>
			<line class="st4" x1="65.5" y1="89.5" x2="81.5" y2="89.5"/>
			<line class="st4" x1="94.5" y1="89.5" x2="108.5" y2="89.5"/>
			<line class="st4" x1="100.5" y1="70.5" x2="109.5" y2="70.5"/>
		</g>
		<g>
			<line class="st7" x1="42.22" y1="47.5" x2="35.6" y2="47.5"/>
		</g>
		<g>
			<line class="st8" x1="28.98" y1="56.5" x2="35.6" y2="47.5"/>
		</g>
		<g>
			<line class="st7" x1="51.87" y1="72.5" x2="51.7" y2="80.29"/>
		</g>
		<g>
			<line class="st8" x1="61.8" y1="80.5" x2="51.7" y2="80.29"/>
		</g>
		<g>
			<line class="st7" x1="12.65" y1="83.5" x2="19.09" y2="80.29"/>
		</g>
		<g>
			<line class="st8" x1="22.58" y1="68.5" x2="19.09" y2="80.29"/>
		</g>
	</g>
</g>
</svg>
